<svg xmlns="http://www.w3.org/2000/svg" width="1280" height="720" viewBox="0 0 1280 720" role="img" aria-label="Lenia Life Lab preview">
  <rect width="1280" height="720" fill="#07120f"/>
  <rect x="24" y="24" width="892" height="672" rx="8" fill="#0b1815" stroke="#29433c"/>
  <rect x="936" y="24" width="320" height="672" rx="8" fill="#11111b" stroke="#3d383f"/>
  <text x="56" y="82" fill="#f4fff9" font-family="system-ui, sans-serif" font-size="42" font-weight="800">Lenia Life Lab</text>
  <text x="56" y="122" fill="#f7d774" font-family="system-ui, sans-serif" font-size="22">Aster bloom 41 · ln-0xeno9q</text>
  <g transform="translate(470 382)">
    <ellipse rx="250" ry="176" fill="#0d201b" stroke="#31594f" stroke-width="2"/>
    <path d="M-210 14C-142-116-22-180 98-126 224-70 220 92 84 146-36 194-206 138-210 14Z" fill="#218f8d"/>
    <path d="M-132-12C-82-94 20-130 96-76 172-22 150 86 54 112-42 140-162 78-132-12Z" fill="#76f7c8"/>
    <path d="M-58 2C-34-42 30-56 68-24 102 6 82 58 30 70-22 82-82 46-58 2Z" fill="#f7d774"/>
    <circle cx="16" cy="18" r="24" fill="#f06a5f"/>
  </g>
  <g fill="#f4fff9" font-family="system-ui, sans-serif">
    <text x="968" y="72" font-size="18" fill="#76f7c8">gen</text>
    <text x="968" y="108" font-size="30" font-weight="800">2,408</text>
    <text x="1110" y="72" font-size="18" fill="#76f7c8">engine</text>
    <text x="1110" y="108" font-size="30" font-weight="800">webgpu</text>
    <rect x="968" y="154" width="256" height="46" rx="8" fill="#76f7c8"/>
    <text x="1048" y="184" font-size="20" fill="#07120f" font-weight="800">Awaken</text>
    <rect x="968" y="216" width="120" height="44" rx="8" fill="#24342f" stroke="#465b54"/>
    <text x="998" y="244" font-size="17">Mutate</text>
    <rect x="1104" y="216" width="120" height="44" rx="8" fill="#24342f" stroke="#465b54"/>
    <text x="1122" y="244" font-size="17">Share</text>
    <text x="968" y="332" font-size="18" fill="#f7d774">movement 0.0412</text>
    <text x="968" y="372" font-size="18" fill="#f7d774">population 0.318</text>
    <text x="968" y="412" font-size="18" fill="#f7d774">energy 0.184</text>
    <text x="968" y="622" font-size="16" fill="#76f7c8">https://github.com/baditaflorin/lenia-life-lab</text>
    <text x="968" y="654" font-size="16" fill="#f06a5f">https://www.paypal.com/paypalme/florinbadita</text>
  </g>
</svg>
